<mxfile host="app.diagrams.net" modified="2020-11-05T01:31:30.640Z" agent="5.0 (Macintosh; Intel Mac OS X 10_15_7) AppleWebKit/537.36 (KHTML, like Gecko) Chrome/86.0.4240.75 Safari/537.36" etag="exuaWphtv1UzKT1Uiddw" version="13.9.1" type="github">
  <diagram id="gzWnFLnMpJGWvSVoMTJI" name="Page-1">
    <mxGraphModel dx="1426" dy="802" grid="1" gridSize="10" guides="1" tooltips="1" connect="1" arrows="1" fold="1" page="1" pageScale="1" pageWidth="4681" pageHeight="3300" math="0" shadow="0">
      <root>
        <mxCell id="0" />
        <mxCell id="1" parent="0" />
        <mxCell id="ooeAuWvPkQ9ejx8l4dU2-3" value="" style="edgeStyle=orthogonalEdgeStyle;rounded=0;orthogonalLoop=1;jettySize=auto;html=1;" edge="1" parent="1" source="ooeAuWvPkQ9ejx8l4dU2-1" target="ooeAuWvPkQ9ejx8l4dU2-2">
          <mxGeometry relative="1" as="geometry" />
        </mxCell>
        <mxCell id="ooeAuWvPkQ9ejx8l4dU2-12" style="edgeStyle=orthogonalEdgeStyle;rounded=0;orthogonalLoop=1;jettySize=auto;html=1;exitX=1;exitY=0.5;exitDx=0;exitDy=0;" edge="1" parent="1" source="ooeAuWvPkQ9ejx8l4dU2-1" target="ooeAuWvPkQ9ejx8l4dU2-10">
          <mxGeometry relative="1" as="geometry" />
        </mxCell>
        <mxCell id="ooeAuWvPkQ9ejx8l4dU2-1" value="&lt;p style=&quot;line-height: 100%&quot;&gt;&lt;/p&gt;&lt;pre style=&quot;font-family: &amp;#34;fira code&amp;#34;&quot;&gt;&lt;font style=&quot;font-size: 12px&quot;&gt;NewAPIServerCommand&lt;/font&gt;&lt;/pre&gt;&lt;pre style=&quot;font-family: &amp;#34;fira code&amp;#34;&quot;&gt;&lt;font style=&quot;font-size: 12px&quot;&gt;使用cobra创建命令&lt;/font&gt;&lt;/pre&gt;&lt;p&gt;&lt;/p&gt;" style="rounded=0;whiteSpace=wrap;html=1;shadow=0;sketch=0;verticalAlign=middle;horizontal=1;align=center;" vertex="1" parent="1">
          <mxGeometry x="80" y="40" width="200" height="70" as="geometry" />
        </mxCell>
        <mxCell id="ooeAuWvPkQ9ejx8l4dU2-5" value="" style="edgeStyle=orthogonalEdgeStyle;rounded=0;orthogonalLoop=1;jettySize=auto;html=1;" edge="1" parent="1" source="ooeAuWvPkQ9ejx8l4dU2-2" target="ooeAuWvPkQ9ejx8l4dU2-4">
          <mxGeometry relative="1" as="geometry" />
        </mxCell>
        <mxCell id="ooeAuWvPkQ9ejx8l4dU2-2" value="logger init" style="whiteSpace=wrap;html=1;rounded=0;shadow=0;verticalAlign=middle;sketch=0;" vertex="1" parent="1">
          <mxGeometry x="80" y="170" width="200" height="40" as="geometry" />
        </mxCell>
        <mxCell id="ooeAuWvPkQ9ejx8l4dU2-14" style="edgeStyle=orthogonalEdgeStyle;rounded=0;orthogonalLoop=1;jettySize=auto;html=1;entryX=0;entryY=0.25;entryDx=0;entryDy=0;dashed=1;dashPattern=1 4;" edge="1" parent="1" source="ooeAuWvPkQ9ejx8l4dU2-4" target="ooeAuWvPkQ9ejx8l4dU2-7">
          <mxGeometry relative="1" as="geometry" />
        </mxCell>
        <mxCell id="ooeAuWvPkQ9ejx8l4dU2-4" value="Execute&lt;br&gt;执行命令" style="whiteSpace=wrap;html=1;rounded=0;shadow=0;verticalAlign=middle;sketch=0;" vertex="1" parent="1">
          <mxGeometry x="80" y="250" width="200" height="50" as="geometry" />
        </mxCell>
        <mxCell id="ooeAuWvPkQ9ejx8l4dU2-24" value="" style="group" vertex="1" connectable="0" parent="1">
          <mxGeometry x="390" y="50" width="280" height="390" as="geometry" />
        </mxCell>
        <mxCell id="ooeAuWvPkQ9ejx8l4dU2-10" value="&lt;pre style=&quot;color: rgb(149 , 157 , 203) ; font-family: &amp;#34;fira code&amp;#34;&quot;&gt;&lt;span style=&quot;color: rgb(128 , 128 , 128)&quot;&gt;s &lt;/span&gt;&lt;span style=&quot;color: rgb(137 , 221 , 255)&quot;&gt;:= &lt;/span&gt;&lt;span style=&quot;color: rgb(128 , 128 , 128)&quot;&gt;options&lt;/span&gt;&lt;span style=&quot;color: rgb(137 , 221 , 255)&quot;&gt;.&lt;/span&gt;&lt;span style=&quot;color: rgb(128 , 128 , 128)&quot;&gt;NewServerRunOptions&lt;/span&gt;&lt;span style=&quot;color: rgb(137 , 221 , 255)&quot;&gt;()&lt;/span&gt;&lt;/pre&gt;&lt;pre style=&quot;font-family: &amp;#34;fira code&amp;#34;&quot;&gt;创建启动命令参数&lt;/pre&gt;" style="rounded=0;whiteSpace=wrap;html=1;shadow=0;sketch=0;fillColor=#ffffff;gradientColor=none;align=center;" vertex="1" parent="ooeAuWvPkQ9ejx8l4dU2-24">
          <mxGeometry width="280" height="50" as="geometry" />
        </mxCell>
        <mxCell id="ooeAuWvPkQ9ejx8l4dU2-23" value="" style="group" vertex="1" connectable="0" parent="ooeAuWvPkQ9ejx8l4dU2-24">
          <mxGeometry y="190" width="280" height="200" as="geometry" />
        </mxCell>
        <mxCell id="ooeAuWvPkQ9ejx8l4dU2-7" value="&lt;font style=&quot;font-size: 16px&quot;&gt;cmd.RunE&lt;/font&gt;" style="rounded=0;whiteSpace=wrap;html=1;shadow=0;sketch=0;gradientColor=none;align=left;verticalAlign=top;fillColor=none;" vertex="1" parent="ooeAuWvPkQ9ejx8l4dU2-23">
          <mxGeometry width="280" height="200" as="geometry" />
        </mxCell>
        <mxCell id="ooeAuWvPkQ9ejx8l4dU2-15" value="启动&lt;br&gt;Run()" style="whiteSpace=wrap;html=1;rounded=0;shadow=0;sketch=0;" vertex="1" parent="ooeAuWvPkQ9ejx8l4dU2-23">
          <mxGeometry x="20" y="110" width="240" height="60" as="geometry" />
        </mxCell>
        <mxCell id="ooeAuWvPkQ9ejx8l4dU2-8" value="&lt;pre style=&quot;color: rgb(149 , 157 , 203) ; font-family: &amp;#34;fira code&amp;#34;&quot;&gt;&lt;font style=&quot;font-size: 12px&quot;&gt;&lt;span style=&quot;color: rgb(128 , 128 , 128)&quot;&gt;Complete&lt;/span&gt;&lt;span style=&quot;color: rgb(137 , 221 , 255)&quot;&gt;(&lt;/span&gt;&lt;span style=&quot;color: rgb(128 , 128 , 128)&quot;&gt;s&lt;/span&gt;&lt;span style=&quot;color: rgb(137 , 221 , 255)&quot;&gt;)&lt;/span&gt;&lt;/font&gt;&lt;/pre&gt;&lt;pre style=&quot;font-family: &amp;#34;fira code&amp;#34;&quot;&gt;&lt;font style=&quot;font-size: 12px&quot;&gt;默认值填充&lt;/font&gt;&lt;/pre&gt;" style="rounded=0;whiteSpace=wrap;html=1;shadow=0;sketch=0;fillColor=#ffffff;gradientColor=none;align=center;" vertex="1" parent="ooeAuWvPkQ9ejx8l4dU2-23">
          <mxGeometry x="20" y="45" width="240" height="50" as="geometry" />
        </mxCell>
        <mxCell id="ooeAuWvPkQ9ejx8l4dU2-17" style="edgeStyle=orthogonalEdgeStyle;rounded=0;orthogonalLoop=1;jettySize=auto;html=1;exitX=0.5;exitY=1;exitDx=0;exitDy=0;dashed=1;dashPattern=1 4;" edge="1" parent="ooeAuWvPkQ9ejx8l4dU2-23" source="ooeAuWvPkQ9ejx8l4dU2-7" target="ooeAuWvPkQ9ejx8l4dU2-7">
          <mxGeometry x="510" y="195" as="geometry" />
        </mxCell>
        <mxCell id="ooeAuWvPkQ9ejx8l4dU2-16" value="" style="edgeStyle=orthogonalEdgeStyle;rounded=0;orthogonalLoop=1;jettySize=auto;html=1;dashed=1;dashPattern=1 4;" edge="1" parent="ooeAuWvPkQ9ejx8l4dU2-23" source="ooeAuWvPkQ9ejx8l4dU2-8" target="ooeAuWvPkQ9ejx8l4dU2-15">
          <mxGeometry x="510" y="195" as="geometry" />
        </mxCell>
        <mxCell id="ooeAuWvPkQ9ejx8l4dU2-11" style="edgeStyle=orthogonalEdgeStyle;rounded=0;orthogonalLoop=1;jettySize=auto;html=1;exitX=0.5;exitY=1;exitDx=0;exitDy=0;" edge="1" parent="ooeAuWvPkQ9ejx8l4dU2-24" source="ooeAuWvPkQ9ejx8l4dU2-10" target="ooeAuWvPkQ9ejx8l4dU2-7">
          <mxGeometry relative="1" as="geometry" />
        </mxCell>
        <mxCell id="ooeAuWvPkQ9ejx8l4dU2-33" style="edgeStyle=orthogonalEdgeStyle;rounded=0;orthogonalLoop=1;jettySize=auto;html=1;exitX=1;exitY=0.5;exitDx=0;exitDy=0;entryX=0;entryY=0;entryDx=0;entryDy=0;" edge="1" parent="1" source="ooeAuWvPkQ9ejx8l4dU2-15" target="ooeAuWvPkQ9ejx8l4dU2-32">
          <mxGeometry relative="1" as="geometry" />
        </mxCell>
        <mxCell id="ooeAuWvPkQ9ejx8l4dU2-34" value="" style="group" vertex="1" connectable="0" parent="1">
          <mxGeometry x="760" y="400" width="360" height="440" as="geometry" />
        </mxCell>
        <mxCell id="ooeAuWvPkQ9ejx8l4dU2-32" value="Run（）" style="rounded=0;whiteSpace=wrap;html=1;shadow=0;sketch=0;fillColor=none;gradientColor=none;align=left;verticalAlign=top;" vertex="1" parent="ooeAuWvPkQ9ejx8l4dU2-34">
          <mxGeometry width="360" height="440" as="geometry" />
        </mxCell>
        <mxCell id="ooeAuWvPkQ9ejx8l4dU2-25" value="createServerChain" style="rounded=0;whiteSpace=wrap;html=1;shadow=0;sketch=0;fillColor=none;gradientColor=none;align=center;" vertex="1" parent="ooeAuWvPkQ9ejx8l4dU2-34">
          <mxGeometry x="40" y="42.5" width="280" height="50" as="geometry" />
        </mxCell>
        <mxCell id="ooeAuWvPkQ9ejx8l4dU2-27" value="&lt;pre style=&quot;color: rgb(149 , 157 , 203) ; font-family: &amp;#34;fira code&amp;#34;&quot;&gt;&lt;span style=&quot;color: rgb(128 , 128 , 128)&quot;&gt;prepared&lt;/span&gt;&lt;span style=&quot;color: rgb(137 , 221 , 255)&quot;&gt;, &lt;/span&gt;&lt;span style=&quot;color: rgb(128 , 128 , 128)&quot;&gt;err &lt;/span&gt;&lt;span style=&quot;color: rgb(137 , 221 , 255)&quot;&gt;:= &lt;/span&gt;&lt;span style=&quot;color: rgb(128 , 128 , 128)&quot;&gt;server&lt;/span&gt;&lt;span style=&quot;color: rgb(137 , 221 , 255)&quot;&gt;.&lt;/span&gt;&lt;span style=&quot;color: rgb(130 , 170 , 255)&quot;&gt;PrepareRun&lt;/span&gt;&lt;span style=&quot;color: rgb(137 , 221 , 255)&quot;&gt;()&lt;/span&gt;&lt;/pre&gt;&lt;pre style=&quot;font-family: &amp;#34;fira code&amp;#34;&quot;&gt;预执行&lt;/pre&gt;" style="whiteSpace=wrap;html=1;rounded=0;shadow=0;fillColor=none;sketch=0;" vertex="1" parent="ooeAuWvPkQ9ejx8l4dU2-34">
          <mxGeometry x="40" y="192.5" width="280" height="55" as="geometry" />
        </mxCell>
        <mxCell id="ooeAuWvPkQ9ejx8l4dU2-29" value="&lt;pre style=&quot;color: rgb(149 , 157 , 203) ; font-family: &amp;#34;fira code&amp;#34; ; font-size: 12pt&quot;&gt;&lt;span style=&quot;color: rgb(128 , 128 , 128)&quot;&gt;prepared&lt;/span&gt;&lt;span style=&quot;color: rgb(137 , 221 , 255)&quot;&gt;.&lt;/span&gt;&lt;span style=&quot;color: rgb(128 , 128 , 128)&quot;&gt;Run&lt;/span&gt;&lt;span style=&quot;color: rgb(137 , 221 , 255)&quot;&gt;(&lt;/span&gt;&lt;span style=&quot;color: rgb(128 , 128 , 128)&quot;&gt;stopCh&lt;/span&gt;&lt;span style=&quot;color: rgb(137 , 221 , 255)&quot;&gt;)&lt;/span&gt;&lt;/pre&gt;&lt;pre style=&quot;font-family: &amp;#34;fira code&amp;#34; ; font-size: 12pt&quot;&gt;执行&lt;/pre&gt;" style="whiteSpace=wrap;html=1;rounded=0;shadow=0;fillColor=none;sketch=0;" vertex="1" parent="ooeAuWvPkQ9ejx8l4dU2-34">
          <mxGeometry x="40" y="322.5" width="280" height="60" as="geometry" />
        </mxCell>
        <mxCell id="ooeAuWvPkQ9ejx8l4dU2-28" value="" style="edgeStyle=orthogonalEdgeStyle;rounded=0;orthogonalLoop=1;jettySize=auto;html=1;" edge="1" parent="ooeAuWvPkQ9ejx8l4dU2-34" source="ooeAuWvPkQ9ejx8l4dU2-25" target="ooeAuWvPkQ9ejx8l4dU2-27">
          <mxGeometry relative="1" as="geometry" />
        </mxCell>
        <mxCell id="ooeAuWvPkQ9ejx8l4dU2-30" value="" style="edgeStyle=orthogonalEdgeStyle;rounded=0;orthogonalLoop=1;jettySize=auto;html=1;" edge="1" parent="ooeAuWvPkQ9ejx8l4dU2-34" source="ooeAuWvPkQ9ejx8l4dU2-27" target="ooeAuWvPkQ9ejx8l4dU2-29">
          <mxGeometry relative="1" as="geometry" />
        </mxCell>
        <mxCell id="ooeAuWvPkQ9ejx8l4dU2-41" value="" style="group" vertex="1" connectable="0" parent="1">
          <mxGeometry x="1340" y="40" width="280" height="300" as="geometry" />
        </mxCell>
        <mxCell id="ooeAuWvPkQ9ejx8l4dU2-35" value="" style="rounded=0;whiteSpace=wrap;html=1;shadow=0;sketch=0;fillColor=none;gradientColor=none;align=center;" vertex="1" parent="ooeAuWvPkQ9ejx8l4dU2-41">
          <mxGeometry width="280" height="300" as="geometry" />
        </mxCell>
        <mxCell id="ooeAuWvPkQ9ejx8l4dU2-36" value="CreateNodeDialer&lt;br&gt;配置node连接传输（云服务ssh支持）" style="rounded=0;whiteSpace=wrap;html=1;shadow=0;sketch=0;fillColor=none;gradientColor=none;align=center;" vertex="1" parent="ooeAuWvPkQ9ejx8l4dU2-41">
          <mxGeometry width="280" height="50" as="geometry" />
        </mxCell>
        <mxCell id="ooeAuWvPkQ9ejx8l4dU2-37" value="&lt;pre style=&quot;color: rgb(149 , 157 , 203) ; font-family: &amp;#34;fira code&amp;#34;&quot;&gt;&lt;span style=&quot;color: rgb(128 , 128 , 128)&quot;&gt;&lt;font style=&quot;font-size: 12px&quot;&gt;CreateKubeAPIServerConfig&lt;/font&gt;&lt;/span&gt;&lt;/pre&gt;&lt;pre&gt;&lt;font&gt;&lt;font face=&quot;fira code&quot;&gt;创建用于运行API服务器的所有资源，&lt;/font&gt;&lt;/font&gt;&lt;/pre&gt;&lt;pre&gt;&lt;font&gt;&lt;font face=&quot;fira code&quot;&gt;但不运行任何资源&lt;/font&gt;&lt;font color=&quot;#808080&quot; face=&quot;fira code&quot;&gt;&lt;br&gt;&lt;/font&gt;&lt;/font&gt;&lt;/pre&gt;" style="rounded=0;whiteSpace=wrap;html=1;shadow=0;sketch=0;fillColor=none;gradientColor=none;align=center;" vertex="1" parent="ooeAuWvPkQ9ejx8l4dU2-41">
          <mxGeometry y="50" width="280" height="70" as="geometry" />
        </mxCell>
        <mxCell id="ooeAuWvPkQ9ejx8l4dU2-38" value="&lt;pre style=&quot;color: rgb(149 , 157 , 203) ; font-family: &amp;#34;fira code&amp;#34;&quot;&gt;&lt;pre style=&quot;font-family: &amp;#34;fira code&amp;#34;&quot;&gt;&lt;span style=&quot;color: rgb(130 , 170 , 255)&quot;&gt;&lt;font style=&quot;font-size: 12px&quot;&gt;CreateKubeAPIServer&lt;/font&gt;&lt;/span&gt;&lt;/pre&gt;&lt;/pre&gt;&lt;pre style=&quot;font-family: &amp;#34;fira code&amp;#34;&quot;&gt;&lt;font style=&quot;font-size: 12px&quot;&gt;创建kube api server&lt;/font&gt;&lt;/pre&gt;" style="rounded=0;whiteSpace=wrap;html=1;shadow=0;sketch=0;fillColor=none;gradientColor=none;align=center;" vertex="1" parent="ooeAuWvPkQ9ejx8l4dU2-41">
          <mxGeometry y="180" width="280" height="60" as="geometry" />
        </mxCell>
        <mxCell id="ooeAuWvPkQ9ejx8l4dU2-39" value="&lt;pre style=&quot;color: rgb(149 , 157 , 203) ; font-family: &amp;#34;fira code&amp;#34;&quot;&gt;&lt;span style=&quot;color: rgb(130 , 170 , 255)&quot;&gt;&lt;font style=&quot;font-size: 12px&quot;&gt;createAPIExtensionsServer&lt;/font&gt;&lt;/span&gt;&lt;/pre&gt;&lt;pre style=&quot;font-family: &amp;#34;fira code&amp;#34;&quot;&gt;&lt;font style=&quot;font-size: 12px&quot;&gt;创建扩展服务&lt;/font&gt;&lt;/pre&gt;" style="rounded=0;whiteSpace=wrap;html=1;shadow=0;sketch=0;fillColor=none;gradientColor=none;align=center;" vertex="1" parent="ooeAuWvPkQ9ejx8l4dU2-41">
          <mxGeometry y="120" width="280" height="60" as="geometry" />
        </mxCell>
        <mxCell id="ooeAuWvPkQ9ejx8l4dU2-40" value="&lt;pre style=&quot;color: rgb(149 , 157 , 203) ; font-family: &amp;#34;fira code&amp;#34;&quot;&gt;&lt;pre style=&quot;font-family: &amp;#34;fira code&amp;#34;&quot;&gt;createAggregatorServer&lt;/pre&gt;&lt;pre style=&quot;font-family: &amp;#34;fira code&amp;#34;&quot;&gt;&lt;span style=&quot;color: rgb(0 , 0 , 0)&quot;&gt;创建 aggregator server&lt;/span&gt;&lt;br&gt;&lt;/pre&gt;&lt;/pre&gt;" style="rounded=0;whiteSpace=wrap;html=1;shadow=0;sketch=0;fillColor=none;gradientColor=none;align=center;" vertex="1" parent="ooeAuWvPkQ9ejx8l4dU2-41">
          <mxGeometry y="240" width="280" height="60" as="geometry" />
        </mxCell>
        <mxCell id="ooeAuWvPkQ9ejx8l4dU2-42" style="edgeStyle=orthogonalEdgeStyle;rounded=0;orthogonalLoop=1;jettySize=auto;html=1;entryX=0.5;entryY=0;entryDx=0;entryDy=0;" edge="1" parent="1" source="ooeAuWvPkQ9ejx8l4dU2-25" target="ooeAuWvPkQ9ejx8l4dU2-36">
          <mxGeometry relative="1" as="geometry" />
        </mxCell>
      </root>
    </mxGraphModel>
  </diagram>
</mxfile>
